<svg xmlns="http://www.w3.org/2000/svg" xmlns:xlink="http://www.w3.org/1999/xlink" version="1.1" x="0px" y="0px" viewBox="-434 236 90 112.5" style="enable-background:new -434 236 90 90;" xml:space="preserve"><style type="text/css">
	.st0{stroke:#000000;stroke-width:2;stroke-linecap:round;stroke-linejoin:round;stroke-miterlimit:10;}
	.st1{fill:none;stroke:#000000;stroke-linecap:round;stroke-linejoin:round;stroke-miterlimit:10;}
	.st2{enable-background:new    ;}
</style><path class="st0" d="M-360.1,274.8c0,2.7,0,5.3,0,8l1.4,28h-4.1l1.4-27.8c0-2.8,0-5.5,0-8.3c-0.1,0-0.1-0.1-0.2-0.2  c-2.1-1.9-9.3-9.8-1.3-21.7c0,0,0.8-1.2,1.9-1.5c0.1,0,0.1,0,0.2,0s0.1,0,0.2,0c1.1,0.3,1.9,1.5,1.9,1.5c7.9,11.5,1.2,19.4-1.1,21.5  C-359.9,274.5-360,274.6-360.1,274.8z"/><g><path class="st0" d="M-419.3,271.5l0.1,1.7l1.4,33.9c0,0-0.5,2-1.4,3.1c-0.2,0.2-0.4,0.4-0.7,0.5c-0.2-0.1-0.5-0.3-0.7-0.5   c-0.9-1.1-1.4-3.1-1.4-3.1l1.4-33.9v-0.5v-0.4v-0.2v-0.5c-0.7-0.1-1.8-0.6-2.1-2.4c-0.4-2.8,0-5,0-5h5.3c0,0,0.4,2.3,0,5   C-417.5,270.8-418.6,271.3-419.3,271.5z"/><line class="st1" x1="-423.1" y1="267.8" x2="-422.2" y2="251.3"/><line class="st1" x1="-418.9" y1="266.5" x2="-419.1" y2="251.3"/><line class="st1" x1="-420.8" y1="267.3" x2="-420.6" y2="251.3"/><line class="st1" x1="-416.7" y1="267.3" x2="-417.5" y2="251.3"/></g><g><g class="st2"><path d="M-390.9,298.1c-9.4,0-17.1-7.7-17.1-17.1s7.7-17.1,17.1-17.1s17.1,7.7,17.1,17.1S-381.5,298.1-390.9,298.1z"/></g><path class="st0" d="M-390.9,257.9c-12.8,0-23.1,10.3-23.1,23.1s10.3,23.1,23.1,23.1c12.8,0,23.1-10.3,23.1-23.1   S-378.2,257.9-390.9,257.9z M-390.9,300.8c-10.9,0-19.8-8.9-19.8-19.8s8.9-19.8,19.8-19.8s19.8,8.9,19.8,19.8   S-380,300.8-390.9,300.8z"/><g class="st2"><path d="M-390.9,298.1c-9.4,0-17.1-7.7-17.1-17.1s7.7-17.1,17.1-17.1s17.1,7.7,17.1,17.1S-381.5,298.1-390.9,298.1z"/></g><g class="st2"><path d="M-390.9,298.1c-9.4,0-17.1-7.7-17.1-17.1s7.7-17.1,17.1-17.1s17.1,7.7,17.1,17.1S-381.5,298.1-390.9,298.1z"/></g></g><text x="-434" y="341" fill="#000000" font-size="5px" font-weight="bold" font-family="'Helvetica Neue', Helvetica, Arial-Unicode, Arial, Sans-serif">Created by Aham Brahma</text><text x="-434" y="346" fill="#000000" font-size="5px" font-weight="bold" font-family="'Helvetica Neue', Helvetica, Arial-Unicode, Arial, Sans-serif">from the Noun Project</text></svg>